<svg height="512" viewBox="0 0 64 64" width="512" xmlns="http://www.w3.org/2000/svg"><g id="Nutrition"><rect fill="#00b6bd" height="23" rx="2" width="16" x="24" y="38"/><g fill="#ccfc5c"><path d="m61.73 13.59-1.42 1.41a8 8 0 0 1 -11.31 0l1.41-1.41a8 8 0 0 1 11.32 0z"/><path d="m50.41 2.27a8 8 0 0 1 0 11.32l-1.41 1.41a8 8 0 0 1 0-11.31z"/><path d="m42.5 13.28s.09 4.82-2.62 6.72-5.95 1.98-7.21.17-.1-4.82 2.62-6.72 7.21-.17 7.21-.17z"/></g><path d="m27 30h10v4h-10z" fill="#00b6bd"/><path d="m40 40v19a2.006 2.006 0 0 1 -2 2h-4a2.006 2.006 0 0 0 2-2v-19a2.006 2.006 0 0 0 -2-2h4a2.006 2.006 0 0 1 2 2z" fill="#009698"/><path d="m33 30h4v4h-4z" fill="#009698"/><path d="m36 8.83c0 3.32-1.79 6-4 6s-4-2.68-4-6 4-6 4-6 4 2.69 4 6z" fill="#ccfc5c"/><path d="m39.88 20c-2.72 1.9-5.95 1.98-7.21.17a2.672 2.672 0 0 1 -.41-.89 6.8 6.8 0 0 0 5.62-1.28c1.76-1.23 2.34-3.69 2.52-5.27a12.163 12.163 0 0 1 2.1.55s.09 4.82-2.62 6.72z" fill="#a4e276"/><path d="m36 8.83c0 3.32-1.79 6-4 6a3.709 3.709 0 0 1 -3.12-2.24 2.718 2.718 0 0 0 1.12.24c2.21 0 4-2.68 4-6a6.032 6.032 0 0 0 -1.42-3.57c1.11.9 3.42 3.06 3.42 5.57z" fill="#a4e276"/><path d="m29 34h6v4h-6z" fill="#e0e0e2"/><path d="m28.71 13.45c2.72 1.9 3.89 4.91 2.62 6.72s-4.49 1.73-7.21-.17-2.62-6.72-2.62-6.72 4.5-1.73 7.21.17z" fill="#ccfc5c"/><path d="m15 3.69a8 8 0 0 1 0 11.31l-1.41-1.41a8 8 0 0 1 0-11.32z" fill="#ccfc5c"/><path d="m13.59 13.59 1.41 1.41a8 8 0 0 1 -11.31 0l-1.42-1.41a8 8 0 0 1 11.32 0z" fill="#ccfc5c"/><path d="m24 45h16v9h-16z" fill="#57a4ff"/><path d="m33 34h2v4h-2z" fill="#c6c5ca"/><path d="m36 45h4v9h-4z" fill="#2488ff"/><path d="m38 37h-2v-2h1a1 1 0 0 0 1-1v-4a1 1 0 0 0 -1-1h-10a1 1 0 0 0 -1 1v4a1 1 0 0 0 1 1h1v2h-2a3.009 3.009 0 0 0 -3 3v19a3.009 3.009 0 0 0 3 3h12a3.009 3.009 0 0 0 3-3v-19a3.009 3.009 0 0 0 -3-3zm-10-6h8v2h-8zm6 4v2h-4v-2zm5 24a1 1 0 0 1 -1 1h-12a1 1 0 0 1 -1-1v-4h14zm0-6h-14v-7h14zm0-9h-14v-4a1 1 0 0 1 1-1h12a1 1 0 0 1 1 1z"/><path d="m62.435 12.879a9 9 0 0 0 -9.11-2.2 9 9 0 0 0 -2.2-9.116 1 1 0 0 0 -1.414 0l-1.418 1.416a9 9 0 0 0 12.728 12.728l1.414-1.414a1 1 0 0 0 0-1.414zm-12.728-8.485.657-.658a7 7 0 0 1 -.657 9.143l-.657.656a7.01 7.01 0 0 1 .657-9.141zm9.9 9.9a7.01 7.01 0 0 1 -9.141.656l.656-.656a7.011 7.011 0 0 1 9.142-.656z"/><path d="m9.343 18.339a9 9 0 0 0 6.364-15.36l-1.414-1.414a1 1 0 0 0 -1.414 0 8.993 8.993 0 0 0 -2.2 9.115 9.005 9.005 0 0 0 -9.11 2.2 1 1 0 0 0 0 1.414l1.414 1.414a8.972 8.972 0 0 0 6.36 2.631zm2.9-10.41a6.943 6.943 0 0 1 1.393-4.193l.657.658a7.01 7.01 0 0 1 .657 9.141l-.657-.656a6.954 6.954 0 0 1 -2.05-4.95zm.636 6.364.656.656a7.01 7.01 0 0 1 -9.141-.656l-.657-.657a7.012 7.012 0 0 1 9.142.657z"/><path d="m42.86 12.35a11.908 11.908 0 0 0 -6.32-.54 9.746 9.746 0 0 0 .46-2.98c0-3.8-4.26-6.71-4.44-6.83a1.033 1.033 0 0 0 -1.12 0c-.18.12-4.44 3.03-4.44 6.83a9.746 9.746 0 0 0 .46 2.98 11.908 11.908 0 0 0 -6.32.54 1.008 1.008 0 0 0 -.64.91c0 .22-.06 5.38 3.05 7.56a8.653 8.653 0 0 0 4.85 1.67 4.957 4.957 0 0 0 2.6-.71v5.22h2v-5.22a4.957 4.957 0 0 0 2.6.71 8.653 8.653 0 0 0 4.85-1.67c3.11-2.18 3.05-7.34 3.05-7.56a1.008 1.008 0 0 0 -.64-.91zm-12.35 7.24c-.93 1.33-3.59 1.15-5.81-.41-1.69-1.18-2.08-3.89-2.17-5.18 1.24-.35 3.92-.91 5.61.27 2.22 1.55 3.31 3.99 2.37 5.32zm1.49-5.76c-1.63 0-3-2.29-3-5 0-2.06 2-3.93 3-4.74 1 .81 3 2.68 3 4.74 0 2.71-1.37 5-3 5zm7.3 5.35c-2.22 1.56-4.88 1.74-5.81.41s.15-3.77 2.37-5.32c1.69-1.19 4.38-.62 5.62-.27-.11 1.5-.6 4.08-2.18 5.18z"/><path d="m11 16.272h2v25.456h-2z" transform="matrix(.707 -.707 .707 .707 -16.991 16.979)"/><path d="m39.272 28h25.456v2h-25.456z" transform="matrix(.707 -.707 .707 .707 -5.276 45.263)"/><path d="m44 28v-2h-2v-2h-2v2h-2v2h2v2h2v-2z"/><path d="m48 20v2h-2v2h2v2h2v-2h2v-2h-2v-2z"/><path d="m24 30v-2h2v-2h-2v-2h-2v2h-2v2h2v2z"/><path d="m16 26v-2h2v-2h-2v-2h-2v2h-2v2h2v2z"/></g></svg>