<svg id="Layer_1" height="512" viewBox="0 0 512 512" width="512" xmlns="http://www.w3.org/2000/svg" data-name="Layer 1"><path d="m300.14 104.28c-14.21 27.21-28.06 53.93-28.06 70.85-8.47 6.82-22.23 7.17-30.12 1.96a40.72 40.72 0 0 1 .4-5.46l1.1-5.81c9.04-38.46 56.07-104.93 56.7-139.69a15.237 15.237 0 0 1 15.14-15.13 14.68 14.68 0 0 1 10.55 4.43 16.313 16.313 0 0 1 4.58 10.7c.85 18.76-14.92 48.73-30.28 78.13-.01.01-.01.01-.01.02z" fill="#e29454"/><path d="m254.448 177.09a40.728 40.728 0 0 1 .4-5.46l1.1-5.81c9.041-38.46 56.071-104.93 56.7-139.69a15.392 15.392 0 0 1 8.873-13.748 14.637 14.637 0 0 0 -6.221-1.382 15.237 15.237 0 0 0 -15.14 15.13c-.63 34.76-47.66 101.23-56.7 139.69l-1.1 5.81a40.72 40.72 0 0 0 -.4 5.46c5.078 3.353 12.583 4.388 19.549 2.893a21.343 21.343 0 0 1 -7.061-2.893z" fill="#bf7a47"/><path d="m407.09 79.86a4.759 4.759 0 0 1 .29 4.03l-5.06 13.19a84.158 84.158 0 0 1 -21.15 31.41 109.089 109.089 0 0 0 -12.53-4.25c-49.29-13.51-76.59 30.91-94.84 49.35a19.292 19.292 0 0 1 -1.72 1.54c0-16.92 13.85-43.64 28.06-70.85 0-.01 0-.01.01-.02 19.99-30.05 55.64-37.61 89.51-30.02l14.13 3.16a5.029 5.029 0 0 1 3.3 2.46z" fill="#8dc63f"/><path d="m403.79 77.4-2.112-.472c-4.262 5.275-8.727 10.645-13.218 16.038 0 .009 0 .009-.014.017-24.566 23.85-58.622 24.926-88.946 12.522-13.983 26.785-27.42 52.959-27.42 69.625a19.292 19.292 0 0 0 1.72-1.54c18.25-18.44 45.55-62.86 94.84-49.35a109.089 109.089 0 0 1 12.53 4.25 84.158 84.158 0 0 0 21.15-31.41l5.06-13.19a4.759 4.759 0 0 0 -.29-4.03 5.029 5.029 0 0 0 -3.3-2.46z" fill="#739937"/><path d="m242.36 171.63a40.72 40.72 0 0 0 -.4 5.46 14.316 14.316 0 0 1 -3.76-3.5c-13.71-18.79-41.66-57.48-85.6-51.28-11.09-19.88-18.52-50.43-15.69-74.49l2.13-18.2a6.276 6.276 0 0 1 7.87-5.33l17.7 4.75a111.588 111.588 0 0 1 81.86 120.76l-3.01 16.02q-.72 3.03-1.1 5.81z" fill="#8dc63f"/><path d="m169.157 30.369c3.455 1.472 7.052 2.831 10.761 4a111.852 111.852 0 0 0 -10.761-4z" fill="#6e891a"/><path d="m140.7 39.354-1.762-8.854-2.028 17.32c-2.83 24.06 4.6 54.61 15.69 74.49 43.94-6.2 71.89 32.49 85.6 51.28a14.316 14.316 0 0 0 3.76 3.5 40.72 40.72 0 0 1 .4-5.46q.375-2.775 1.1-5.81l3.01-16.02a111.638 111.638 0 0 0 -.265-28.18 111.6 111.6 0 0 1 -105.505-82.266z" fill="#739937"/><path d="m187.435 94.51a5.99 5.99 0 0 1 -4.89-2.517l-45.321-63.57a6 6 0 1 1 9.776-6.966l45.321 63.57a6 6 0 0 1 -4.881 9.483z" fill="#6e891a"/><path d="m381.17 126.49c59.69 24.35 81.84 95.65 81.84 148.79 0 94.64-92.92 223.72-152.63 223.72-14.8 0-28.77-8.15-38.9-14.28-8.88-5.37-25.32-3.46-30.96 0-10.09 6.19-24.49 14.28-38.9 14.28-71.35 0-152.06-127.62-152.63-223.72-.27-46.28 25.22-134.09 94.37-153.04a74.673 74.673 0 0 1 9.24-1.93c43.94-6.2 71.89 32.49 85.6 51.28a14.316 14.316 0 0 0 3.76 3.5c7.89 5.21 21.65 4.86 30.12-1.96a19.292 19.292 0 0 0 1.72-1.54c18.25-18.44 45.55-62.86 94.84-49.35a109.089 109.089 0 0 1 12.53 4.25z" fill="#fc324b"/><path d="m144.324 319.052c-23.883-43.331-44.773-138.822 10.5-191.926a79.753 79.753 0 0 1 7.693-6.531c.424-.314.85-.615 1.277-.917a66.3 66.3 0 0 0 -11.2.632 74.673 74.673 0 0 0 -9.24 1.93c-69.144 18.95-94.634 106.76-94.364 153.04.57 96.1 81.28 223.72 152.63 223.72 14.41 0 28.81-8.09 38.9-14.28 5.64-3.46 22.08-5.37 30.96 0 10.13 6.13 24.1 14.28 38.9 14.28 20.819 0 45.675-15.7 69.222-40.158-72.15 12.889-190.666-58.866-235.278-139.79z" fill="#e01b33"/><g opacity=".6"><path d="m103.033 303.171a6 6 0 0 1 -5.89-4.9c-13.883-74.052 18.128-107.177 19.5-108.551a6 6 0 0 1 8.518 8.452c-.18.187-7.338 7.714-12.877 23.275-5.179 14.551-9.964 39.307-3.345 74.613a6.006 6.006 0 0 1 -5.9 7.107z" fill="#e9e9e9"/></g><g opacity=".6"><path d="m108.624 331.8a6 6 0 0 1 -5.856-4.723l-2.65-12.16a6 6 0 1 1 11.724-2.556l2.65 12.16a6.005 6.005 0 0 1 -5.868 7.279z" fill="#e9e9e9"/></g></svg>