<svg id="Layer_1" height="512" viewBox="0 0 512 512" width="512" xmlns="http://www.w3.org/2000/svg" data-name="Layer 1"><path d="m494.718 207.58c9.14 61.5-31.58 118.51-90.97 127.34a107.5 107.5 0 0 1 -11.08 1.06l-2.1.08c-1.6-58.47-51.04-105.44-111.91-105.74v-.06c-3.97-57.84 35.59-109.66 91.97-118.04 59.39-8.83 114.94 33.86 124.09 95.36z" fill="#6c69b7"/><path d="m370.628 112.22c-56.38 8.38-95.939 60.2-91.969 118.04v.06l45.341 7.413v-.06c-3.969-57.84 35.59-109.66 91.97-118.04 3.176-.472 6.34-.788 9.487-.971a105.344 105.344 0 0 0 -54.829-6.442z" fill="#53508c"/><path d="m229.688 239.57.47 1.04c-38.23 17.37-64.69 54.91-64.69 98.4a105.4 105.4 0 0 0 5.96 35.01h-.01a106.26 106.26 0 0 1 -79.3 6.99c-57.41-17.57-89.19-80.01-70.99-139.46s79.49-93.4 136.9-75.82c35.88 10.98 61.75 39.49 71.66 73.84z" fill="#6c63b5"/><path d="m66.473 248.963c14.3-46.71 55.2-77.672 99.921-80.272-2.726-1.09-5.51-2.087-8.365-2.961-57.411-17.58-118.7 16.37-136.9 75.82s13.58 121.89 70.99 139.46a105.153 105.153 0 0 0 36.963 4.455c-52.068-20.83-79.902-80.013-62.609-136.502z" fill="#53508c"/><path d="m131.058 259.59-5.57 4.16a23.457 23.457 0 0 0 -8.11 26.5l2.28 6.56-6.38-2.74a23.467 23.467 0 0 0 -27.01 6.22l-4.54 5.26-.82-6.9a23.452 23.452 0 0 0 -18.89-20.27l-6.82-1.31 5.56-4.16a23.457 23.457 0 0 0 8.11-26.5l-2.28-6.56 6.39 2.74a23.436 23.436 0 0 0 27-6.22l4.54-5.26.82 6.9a23.474 23.474 0 0 0 18.9 20.28z" fill="#303051"/><path d="m449.518 223.72 4.88 4.95-6.94.27a23.46 23.46 0 0 0 -21.7 17.24l-1.84 6.7-3.7-5.88a23.476 23.476 0 0 0 -25.78-10.18l-6.72 1.76 3.23-6.15a23.468 23.468 0 0 0 -4.07-27.41l-4.89-4.94 6.94-.27a23.474 23.474 0 0 0 21.71-17.24l1.83-6.7 3.71 5.88a23.47 23.47 0 0 0 25.78 10.17l6.72-1.76-3.24 6.15a23.453 23.453 0 0 0 4.08 27.41z" fill="#303051"/><path d="m269.817 79.788h17.628a71.774 71.774 0 0 1 71.774 71.774v17.628a0 0 0 0 1 0 0h-17.627a71.774 71.774 0 0 1 -71.774-71.774v-17.628a0 0 0 0 1 -.001 0z" fill="#67a829" transform="matrix(.458 .889 -.889 .458 281.147 -212.12)"/><path d="m341.859 79.95-6.727-13.056 1.681 10.172a71.763 71.763 0 0 1 -54.028 81.463 72.113 72.113 0 0 0 4.394 10.5l8.073 15.671 15.671-8.073a71.776 71.776 0 0 0 30.936-96.677z" fill="#8dd641"/><path d="m391.9 336.025c.04.992.05 1.983.05 2.985 0 60.749-50.995 109.993-113.9 109.993-50.084 0-92.61-31.2-107.878-74.57a106.632 106.632 0 0 1 -6.03-35.423c0-44 26.772-81.987 65.453-99.562a116.761 116.761 0 0 1 48.455-10.421c.2 0 .415 0 .618.01 61.586.303 111.61 47.828 113.232 106.988z" fill="#6c63b5"/><path d="m216.05 381.933a106.654 106.654 0 0 1 -6.031-35.423c0-44 26.773-81.986 65.454-99.561a116.527 116.527 0 0 1 44.212-10.338 117.1 117.1 0 0 0 -41.019-7.574c-.2-.01-.415-.01-.618-.01a116.761 116.761 0 0 0 -48.455 10.421c-38.681 17.575-65.454 55.559-65.454 99.562a106.658 106.658 0 0 0 6.031 35.423c15.268 43.367 57.794 74.567 107.878 74.567 1.434 0 2.86-.034 4.281-.085-31.07-11.773-55.488-36.331-66.279-66.982z" fill="#56568c"/><path d="m322.021 371.408-6.435 2.843a23.731 23.731 0 0 0 -14.023 24.283l.759 6.982-5.666-4.149a23.747 23.747 0 0 0 -28.048 0l-5.666 4.149.759-6.982a23.73 23.73 0 0 0 -14.024-24.283l-6.425-2.843 6.425-2.833a23.73 23.73 0 0 0 14.023-24.283l-.759-6.992 5.666 4.159a23.747 23.747 0 0 0 28.048 0l5.666-4.159-.759 6.992a23.731 23.731 0 0 0 14.023 24.283z" fill="#303051"/><path d="m155.916 105.119h53.354a71.774 71.774 0 0 1 71.774 71.774v53.354a0 0 0 0 1 0 0h-53.354a71.774 71.774 0 0 1 -71.774-71.774v-53.354a0 0 0 0 1 0 0z" fill="#67a829"/><path d="m242.368 195.454a71.774 71.774 0 0 1 -71.774-71.774v-18.561h-14.678v53.354a71.774 71.774 0 0 0 71.775 71.774h53.354v-34.793z" fill="#8dd641"/></svg>