<svg id="Layer_1" height="512" viewBox="0 0 512 512" width="512" xmlns="http://www.w3.org/2000/svg" data-name="Layer 1"><path d="m396.26 72.06c31.02 16.15 33.27 54.91 28.78 74.01l-9.72-17.42-7.4-13.26a2.19 2.19 0 0 0 -3.61-.32l-20.88 25.71-9.8-36.77a1.627 1.627 0 0 0 -3.08-.21c-4.74 11.43-12.9 21.68-24.15 32.39 0 0-3.71-19.57-2.86-32.17a2.808 2.808 0 0 0 -4.2-2.64c-3.41 1.97-8.04 4.99-14.71 9.79-4.37 3.15-9.62 7.08-15.97 11.97 0-30.65 24.26-57.62 54.49-58.35v-.02c.66-5.46.36-9.77.36-15.14 0-21.46-10.41-38.63 10.89-38.63 18.62 0 22.56 17.17 22.56 38.63 0 7.96.1 15.14-.71 22.43z" fill="#3e9e4e"/><path d="m396.26 72.06h-.01c.81-7.29.71-14.47.71-22.43 0-19.8-3.364-35.935-18.506-38.316 10.765 8.265 8.9 24.748 3.246 43.523-2.507 8.322-4.665 15.86-7.8 23.231h.01c14.09 22.932 18.802 35.932 16.601 53.994l13.8-16.992a2.19 2.19 0 0 1 3.61.32l7.4 13.26 9.72 17.42c4.489-19.1 2.239-57.86-28.781-74.01z" fill="#136b0a"/><path d="m415.32 128.65c.52 267.71-126.09 372.35-217.51 372.35-62.2 0-112.61-48.02-112.61-107.25 0-46.99 31.73-86.92 75.9-101.42 14.94-6.13 32.62-12.65 50.51-21.26s35.98-19.33 51.73-33.87c51.13-47.16 56.08-102.77 61.3-126.02l-.01-.01c6.67-4.8 11.3-7.82 14.71-9.79a2.808 2.808 0 0 1 4.2 2.64c-.85 12.6 2.86 32.17 2.86 32.17 11.25-10.71 19.41-20.96 24.15-32.39a1.627 1.627 0 0 1 3.08.21l9.8 36.77 20.88-25.71a2.19 2.19 0 0 1 3.61.32z" fill="#471b7a"/><path d="m407.92 115.39a2.145 2.145 0 0 0 -.546-.627c-58.414 253.031-201.728 325.837-289.809 306.537a117.823 117.823 0 0 1 -31.122-11.581c8.096 51.655 54.865 91.281 111.367 91.281 91.42 0 218.03-104.64 217.51-372.35z" fill="#60379b"/><g opacity=".6"><path d="m215.831 466a6 6 0 0 1 -2.143-11.606 164.134 164.134 0 0 0 20.4-9.483 6 6 0 0 1 5.781 10.516 176.289 176.289 0 0 1 -21.9 10.177 5.99 5.99 0 0 1 -2.138.396z" fill="#e9e9e9"/></g><g opacity=".6"><path d="m263.144 438.831a6 6 0 0 1 -3.7-10.725 212.119 212.119 0 0 0 17.456-15.326 263.745 263.745 0 0 0 42.351-54.713 6 6 0 1 1 10.33 6.106 275.739 275.739 0 0 1 -44.295 57.191 224.454 224.454 0 0 1 -18.451 16.19 5.973 5.973 0 0 1 -3.691 1.277z" fill="#e9e9e9"/></g></svg>