<svg height="512" viewBox="0 0 48 58" width="512" xmlns="http://www.w3.org/2000/svg"><g id="Page-1" fill="none" fill-rule="evenodd"><g id="021---Fertiliser" fill-rule="nonzero"><path id="Shape" d="m46.72 50.54c1.8 3.09 1.77 7.46-.51 7.46-1.7011972-.0498258-3.3706232-.4731567-4.89-1.24-.8207431-.3972981-1.5788041-.9127795-2.25-1.53h-.01v-.01c-4.9457668 1.1076807-9.9922775 1.7041474-15.06 1.78-5.0677225-.0758526-10.1142332-.6723193-15.06-1.78-.67186586.6237343-1.43371985 1.1428737-2.26 1.54-1.51937685.7668433-3.18880277 1.1901742-4.89 1.24-2.28 0-2.31-4.39-.5-7.48.429284-.7606262.99943112-1.4325853 1.68-1.98-1.16234224-6.4523982-1.82099572-12.9854383-1.97-19.54.14900428-6.5545617.80765776-13.0876018 1.97-19.54-.68056888-.54741474-1.250716-1.21937385-1.68-1.98-1.81-3.09-1.78-7.48.5-7.48 1.69669291.0507117 3.36197081.47044363 4.88 1.23.82765675.40414717 1.59228992.92625351 2.27 1.55 4.9457668-1.10768067 9.9922775-1.70414741 15.06-1.78 5.0677225.07585259 10.1142332.67231933 15.06 1.78l.01-.01c.6721378-.62070919 1.4340377-1.1365087 2.26-1.53h.01c1.5124042-.76640711 3.1752357-1.18979746 4.87-1.24 2.28 0 2.31 4.36.51 7.45v.01c-.4259536.76579466-.9965054 1.44162687-1.68 1.99l-.01.01c1.1623422 6.4523982 1.8209957 12.9854383 1.97 19.54-.1490043 6.5545617-.8076578 13.0876018-1.97 19.54l.01.01c.6834946.5483731 1.2540464 1.2242053 1.68 1.99z" fill="#f0c419"/><g fill="#f29c1f"><path id="Shape" d="m46.72 7.45v.01c-.4259536.76579466-.9965054 1.44162687-1.68 1.99-.2-1.11-.37-2.1-.53-2.91-.1049341-.54400048.2509995-1.0700659.795-1.175s1.0700659.25099952 1.175.795c.08.39.15.82.24 1.29z"/><path id="Shape" d="m42.77 2.61c-.0603031.2576676-.220863.48065265-.4461084.61955397s-.4965802.18225132-.7538916.12044603c-.7-.17-1.52-.36-2.44-.56-.0212492-.00207135-.0417578-.00890756-.06-.02.6721378-.62070919 1.4340377-1.1365087 2.26-1.53h.01c.25.06.48.11.7.17.5305793.13302274.8558212.66766698.73 1.2z"/><path id="Shape" d="m8.94 2.78c-2.187.447-2.3.55-2.57.55-.50251151-.00642206-.92219678-.38479269-.98047458-.88395474-.0582778-.49916206.26295757-.96403611.75047458-1.08604526.17-.04.35-.08.53-.13.82765675.40414717 1.59228992.92625351 2.27 1.55z"/><path id="Shape" d="m3.52 6.41c-.38 1.97-.52 2.948-.55 3.05-.68056888-.54741474-1.250716-1.21937385-1.68-1.98.1-.53.19-1.01.27-1.45.04899566-.36815644.29799329-.67883243.64664507-.80682335.34865179-.12799091.73951844-.05221064 1.01507793.19680083.27555949.24901146.39041425.63023026.298277.99002252z"/><path id="Shape" d="m47 29c-.0978412 5.4437595-.5790321 10.8738653-1.44 16.25-6.7690735 3.0926378-14.1180043 4.7117205-21.56 4.75-7.4419957-.0382795-14.79092647-1.6573622-21.56-4.75-.86096787-5.3761347-1.34215879-10.8062405-1.44-16.25.09784121-5.4437595.57903213-10.8738653 1.44-16.25 6.76907353-3.09263784 14.1180043-4.71172045 21.56-4.75 7.4419957.03827955 14.7909265 1.65736216 21.56 4.75.8609679 5.3761347 1.3421588 10.8062405 1.44 16.25z"/><path id="Shape" d="m8.94 55.22c-.67186586.6237343-1.43371985 1.1428737-2.26 1.54-.27-.06-.53-.12-.77-.18-.36643373-.0649393-.66649629-.3279875-.77884238-.6827679s-.01838977-.7426001.24387301-1.0066248c.26226278-.2640246.6494447-.3605755 1.00496937-.2506073 2.233.518 2.175.484 2.56.58z"/><path id="Shape" d="m42.13 56.56c-.25.06-.52.13-.81.2-.8207431-.3972981-1.5788041-.9127795-2.25-1.53.05-.02 1.9-.44 2.59-.61.5381915-.1279788 1.0787339.2026008 1.21.74.1252036.535421-.2053656 1.0714792-.74 1.2z"/><path id="Shape" d="m46.72 50.54c-.1.5-.18.96-.26 1.38-.0489957.3681564-.2979933.6788324-.6466451.8068233-.3486518.127991-.7395184.0522107-1.0150779-.1968008-.2755595-.2490114-.3904143-.6302302-.298277-.9900225.15-.83.33-1.83.53-2.97 0-.01 0-.01.01-.02.6834946.5483731 1.2540464 1.2242053 1.68 1.99z"/><path id="Shape" d="m3.52 51.57c.09213725.3597923-.02271751.7410111-.298277.9900225-.27555949.2490115-.66642614.3247918-1.01507793.1968008-.34865178-.1279909-.59764941-.4386669-.64664507-.8068233-.08-.43-.17-.91-.27-1.43.429284-.7606262.99943112-1.4325853 1.68-1.98.01123724.0217783.01803551.0455723.02.07.19 1.13.37 2.14.53 2.96z"/></g><circle id="Oval" cx="24" cy="29" fill="#f5efca" r="14"/><path id="Shape" d="m34.56 38.18c-2.6549479 3.0613593-6.5077575 4.8198952-10.56 4.8198952s-7.9050521-1.7585359-10.56-4.8198952c.6808629-1.3396339 2.0572735-2.182492 3.56-2.18.9043933.0027804 1.7802111.3170859 2.48.89.8147907-1.7617479 2.5789592-2.8895455 4.52-2.8895455s3.7052093 1.1277976 4.52 2.8895455c.6997889-.5729141 1.5756067-.8872196 2.48-.89 1.5027265-.002492 2.8791371.8403661 3.56 2.18z" fill="#a56a43"/><path id="Shape" d="m24 38c-.3392427-.000029-.6553367-.1720463-.8395805-.4568969-.1842438-.2848505-.211509-.6436847-.0724195-.9531031 1.1773887-2.9474361 1.1773887-6.2345639 0-9.182-.2206503-.5029186.0055722-1.0896728.5067272-1.3143.5011549-.2246273 1.0896827-.0030599 1.3182728.4963 1.4272838 3.4654602 1.4272838 7.3545398 0 10.82-.1615345.3593499-.5190132.5903602-.913.59z" fill="#14a085"/><path id="Shape" d="m24 27c-.0599219.2404564-.1968937.4546943-.39.61-.92.69-2.63 1.73-4.21 1.34s-2.61-2.12-3.1-3.15c-.2079374-.4697023-.072275-1.0205739.33-1.34.91-.68 2.63-1.73 4.21-1.33 1.2903872.4765804 2.3305208 1.4589288 2.88 2.72z" fill="#26b99a"/><path id="Shape" d="m24 27c.1597363.1920218.3834689.319869.63.36 1.12.2 3.13.34 4.36-.73s1.35-3.08 1.31-4.22c-.0269897-.5096317-.3985914-.9349092-.9-1.03-1.13-.2-3.13-.34-4.36.73-.923902 1.0191109-1.3995341 2.3667352-1.32 3.74z" fill="#26b99a"/></g></g></svg>