<?xml version="1.0" encoding="iso-8859-1"?>
<!-- Generator: Adobe Illustrator 21.0.0, SVG Export Plug-In . SVG Version: 6.00 Build 0)  -->
<svg xmlns="http://www.w3.org/2000/svg" xmlns:xlink="http://www.w3.org/1999/xlink" version="1.1" id="Capa_1" x="0px" y="0px" viewBox="0 0 512.601 512.601" style="enable-background:new 0 0 512.601 512.601;" xml:space="preserve" width="512" height="512">
<g>
	<path style="fill:#25D9F8;" d="M512.601,92.5c0,1.8-0.3,4.501-0.601,6.899V190.6l-40.8,48.9c-6,1.8-12.301,2.999-18.6,2.999   c-18.001,0-34.9-7.8-46-20.4c-11.1,12.599-27.001,20.4-45,20.4c-5.4,0-10.501-0.601-15.601-2.1c-11.4-2.999-21.599-9.6-29.399-18.3   c-11.1,12.599-27.001,20.4-45,20.4c-18.001,0-33.9-7.8-45-20.4c-10.501,12.001-25.801,20.099-43.2,20.4c-7.2,0-15-1.199-22.8-3.9   c-5.099-1.8-9-6.599-9.6-11.999L136.601,128.5c-1.201-6.301,1.5-12.9,7.2-15.901c5.4-3.3,12.599-2.699,17.401,1.8   c0.899,0.901,2.098,1.8,3.3,2.401c4.2,3.001,9.901,5.7,17.1,5.7c16.5,0,30-13.5,30-30c0-8.399,6.599-15,15-15   c8.399,0,15,6.601,15,15c0,16.199,13.799,30,30,30c16.5,0,30-13.5,30-30c0-8.399,6.599-15,15-15c8.399,0,15,6.601,15,15   c0,10.501,5.7,20.099,14.399,25.501c4.501,2.699,9.901,4.499,15.601,4.499c16.5,0,30-13.5,30-30c0-8.399,6.599-15,15-15   c8.399,0,15,6.601,15,15c0,16.199,14.799,30,31,30c15,0,27.299-10.8,29.399-25.499V92.5c0-8.399,6.599-15,15-15h0.601   C506,77.5,512.601,84.101,512.601,92.5z"/>
	<path style="fill:#76E2F8;" d="M512,190.6v230.7l-62.999,30H316c-75.601,0-141-56.7-151.8-131.7L151,226.601   c-0.901-5.101,1.199-10.501,5.099-13.801c4.2-3.3,9.6-4.2,14.7-2.401c3.9,1.5,7.5,2.1,10.801,2.1c16.5,0,30-13.5,30-30   c0-8.399,6.599-15,15-15c8.399,0,15,6.601,15,15c0,16.199,13.799,30,30,30c16.5,0,30-13.5,30-30c0-8.399,6.599-15,15-15   c8.399,0,15,6.601,15,15c0,10.501,5.7,20.099,14.399,25.501c4.501,2.699,9.901,4.499,15.601,4.499c16.5,0,30-13.5,30-30   c0-8.399,6.599-15,15-15c8.399,0,15,6.601,15,15c0,16.199,14.799,30,31,30c14.399,0,26.999-10.499,29.7-24.6   c1.5-7.5,8.399-12.9,16.199-12.299C506,176.499,512,182.8,512,190.6z"/>
	<path style="fill:#00C0F1;" d="M512.601,92.5c0,1.8-0.3,4.501-0.601,6.899V190.6l-40.8,48.9c-6,1.8-12.301,2.999-18.6,2.999   c-18.001,0-34.9-7.8-46-20.4c-11.1,12.599-27.001,20.4-45,20.4c-5.4,0-10.501-0.601-15.601-2.1V118.001   c4.501,2.699,9.901,4.499,15.601,4.499c16.5,0,30-13.5,30-30c0-8.399,6.599-15,15-15c8.399,0,15,6.601,15,15   c0,16.199,14.799,30,31,30c15,0,27.299-10.8,29.399-25.499V92.5c0-8.399,6.599-15,15-15h0.601   C506,77.5,512.601,84.101,512.601,92.5z"/>
	<path style="fill:#25D9F8;" d="M512,190.6v230.7l-62.999,30H346v-243.3c4.501,2.699,9.901,4.499,15.601,4.499c16.5,0,30-13.5,30-30   c0-8.399,6.599-15,15-15c8.399,0,15,6.601,15,15c0,16.199,14.799,30,31,30c14.399,0,26.999-10.499,29.7-24.6   c1.5-7.5,8.399-12.9,16.199-12.299C506,176.499,512,182.8,512,190.6z"/>
	<path style="fill:#61729B;" d="M386.499,326.8c-5.7,6-15.298,6-20.999,0l-4.501-4.2V376.3c0,8.399-6.599,15-15,15s-15-6.601-15-15   v-53.701l-4.501,4.2c-5.7,6-15.298,6-20.999,0c-6-5.7-6-15.3,0-21l30-30C338.2,272.8,342.1,271.3,346,271.3s7.8,1.5,10.499,4.499   l30,30C392.5,311.499,392.5,321.099,386.499,326.8z"/>
	<path style="fill:#47568C;" d="M346,391.3v-120c3.9,0,7.8,1.5,10.499,4.499l30,30c6,5.7,6,15.3,0,21c-5.7,6-15.298,6-20.999,0   l-4.501-4.2V376.3C361,384.699,354.401,391.3,346,391.3z"/>
	<g>
		<g>
			<path style="fill:#61729B;" d="M316,421.3c-60.901,0-113.401-45.601-122.1-105.901l-10.499-72.9L167.5,130.901l-1.5-8.701     c-0.3-1.8-0.901-3.6-1.5-5.4C147.1,48.699,86.1,0.3,15,0.3c-8.401,0-15,6.599-15,15v482c0,8.399,6.599,15,15,15h482     c8.401,0,15-6.601,15-15v-76H316z"/>
		</g>
	</g>
	<path style="fill:#47568C;" d="M346,421.3h166v76c0,8.399-6.599,15-15,15H346V421.3z"/>
</g>















</svg>
