<svg width="48" height="48" viewBox="0 0 48 48" fill="none" xmlns="http://www.w3.org/2000/svg">
<path d="M0 24C0 10.7452 10.7452 0 24 0C37.2548 0 48 10.7452 48 24V47C48 47.5523 47.5523 48 47 48H24C10.7452 48 0 37.2548 0 24Z" fill="#6FE57B" fill-opacity="0.34"/>
<path d="M33 31.75V25.1301C33 23.9814 33 23.4071 32.8519 22.8781C32.7208 22.4096 32.5053 21.9689 32.2159 21.5777C31.8893 21.1361 31.436 20.7835 30.5292 20.0783L27.9292 18.0561L27.9292 18.0561C26.5239 16.963 25.8213 16.4165 25.0454 16.2065C24.3608 16.0211 23.6392 16.0211 22.9546 16.2065C22.1787 16.4165 21.4761 16.963 20.0708 18.0561L17.4708 20.0783C16.564 20.7835 16.1107 21.1361 15.7841 21.5777C15.4947 21.9689 15.2792 22.4096 15.1481 22.8781C15 23.4071 15 23.9814 15 25.1301V31.75C15 32.4478 15 32.7967 15.0861 33.0806C15.28 33.7198 15.7802 34.22 16.4194 34.4139C16.7033 34.5 17.0522 34.5 17.75 34.5H18.375C18.4911 34.5 18.5491 34.5 18.5981 34.4976C19.6255 34.4471 20.4471 33.6255 20.4976 32.5981C20.5 32.5491 20.5 32.4911 20.5 32.375V29.5C20.5 27.567 22.067 26 24 26C25.933 26 27.5 27.567 27.5 29.5V32.375C27.5 32.4911 27.5 32.5491 27.5024 32.5981C27.5529 33.6255 28.3745 34.4471 29.4019 34.4976C29.4509 34.5 29.5089 34.5 29.625 34.5H30.25C30.9478 34.5 31.2967 34.5 31.5806 34.4139C32.2198 34.22 32.72 33.7198 32.9139 33.0806C33 32.7967 33 32.4478 33 31.75Z" fill="#6FE57B" stroke="#6FE57B" stroke-width="1.8"/>
</svg>
