<svg width="48" height="48" viewBox="0 0 48 48" fill="none" xmlns="http://www.w3.org/2000/svg">
<path d="M14 30L16.7856 25.3573C16.8827 25.1955 17.1173 25.1955 17.2144 25.3573L19.7335 29.5558C19.8411 29.7352 20.1084 29.7108 20.1819 29.5149L22.7734 22.6042C22.8536 22.3904 23.1548 22.3871 23.2396 22.5991L26.7371 31.3428C26.8247 31.5617 27.1388 31.5488 27.2082 31.3234L30.8165 19.5964C30.8828 19.3808 31.1782 19.3564 31.279 19.5581L34 25" stroke="#6FE57B" stroke-width="1.8" stroke-linecap="round" stroke-linejoin="round"/>
<path d="M0 24C0 10.7452 10.7452 0 24 0C37.2548 0 48 10.7452 48 24V47C48 47.5523 47.5523 48 47 48H24C10.7452 48 0 37.2548 0 24Z" fill="#6FE57B" fill-opacity="0.34"/>
</svg>
