<svg width="48" height="48" viewBox="0 0 48 48" fill="none" xmlns="http://www.w3.org/2000/svg">
<path d="M0 24C0 10.7452 10.7452 0 24 0C37.2548 0 48 10.7452 48 24V47C48 47.5523 47.5523 48 47 48H24C10.7452 48 0 37.2548 0 24Z" fill="#6FE57B" fill-opacity="0.34"/>
<path d="M15.2188 34.2292L13.2572 17.2292C13.1202 16.0417 14.0486 15 15.244 15H33.3713C34.5667 15 35.4952 16.0417 35.3582 17.2292L33.3966 34.2292C33.2802 35.2384 32.4257 36 31.4098 36H17.2056C16.1897 36 15.3352 35.2384 15.2188 34.2292Z" fill="#6FE57B"/>
<path d="M30.7692 19.8462C30.7692 23.4148 27.8763 26.3077 24.3077 26.3077C20.7391 26.3077 17.8462 23.4148 17.8462 19.8462" stroke="white" stroke-width="1.5" stroke-linecap="round"/>
</svg>
