<?xml version="1.0" standalone="no"?>
<!DOCTYPE svg PUBLIC "-//W3C//DTD SVG 20010904//EN"
 "http://www.w3.org/TR/2001/REC-SVG-20010904/DTD/svg10.dtd">
<svg version="1.0" xmlns="http://www.w3.org/2000/svg"
 width="282.000000pt" height="282.000000pt" viewBox="0 0 282.000000 282.000000"
 preserveAspectRatio="xMidYMid meet">

<g transform="translate(0.000000,282.000000) scale(0.100000,-0.100000)"
fill="#000000" stroke="none">
<path d="M845 2044 c-364 -192 -580 -592 -521 -969 8 -55 25 -129 36 -165 98
-295 349 -535 675 -644 220 -74 516 -76 735 -5 226 73 445 229 562 402 54 80
122 226 144 312 28 106 27 342 -3 450 -60 218 -198 413 -388 547 -121 85 -134
91 -202 73 -31 -8 -82 -15 -113 -15 l-55 -1 39 -36 c85 -78 135 -205 121 -301
l-7 -45 -51 51 c-37 36 -69 57 -110 71 -90 31 -155 71 -203 125 -25 27 -46 47
-48 45 -2 -2 -14 -24 -26 -49 -61 -122 -102 -149 -247 -161 -59 -4 -109 -7
-110 -5 -8 8 32 104 64 152 41 62 62 117 55 149 -4 23 -5 23 -97 18 -71 -5
-105 -2 -144 11 -27 9 -51 16 -53 16 -2 0 -26 -12 -53 -26z m-189 -529 c4 -8
-4 -55 -17 -103 -31 -115 -33 -313 -5 -412 27 -93 27 -124 -1 -128 -28 -4 -37
17 -65 148 -16 75 -19 119 -15 210 5 113 34 258 58 286 15 18 38 18 45 -1z
m137 -851 c56 -75 69 -108 45 -117 -23 -8 -45 11 -97 81 -49 66 -59 91 -44
105 18 19 45 0 96 -69z"/>
</g>
</svg>
