<svg id="Capa_1" enable-background="new 0 0 512 512" height="512" viewBox="0 0 512 512" width="512" xmlns="http://www.w3.org/2000/svg"><g><path d="m195.399 436c.746 4.097.601 8.965.601 15.099 0 34.201 26.4 60.901 60 60.901 32.999 0 60-27.001 60-60 0-7.138-.141-11.923.601-16l-60.601-30z" fill="#e6f7ff"/><path d="m316 452c0-7.139-.141-11.924.601-16l-60.601-30v106c32.999 0 60-27.001 60-60z" fill="#cef"/><g id="Idea_2_"><g><path d="m363.7 307.3c-29.1 38.4-45.6 82.8-47.1 128.7h-121.2c-1.8-44.4-18.3-88.5-49.2-131.7-20.7-28.8-29.1-64.2-23.7-99.6 11.87-76.76 72.72-113.68 133.5-113.44 66.82.24 133.55 45.41 134.98 131.91.258 31.49-8.806 59.394-27.28 84.13z" fill="#ffe666"/></g><g><path d="m256 61c-8.291 0-15-6.709-15-15v-31c0-8.291 6.709-15 15-15s15 6.709 15 15v31c0 8.291-6.709 15-15 15z" fill="#ffe666"/></g><g><path d="m398.91 143.5c-4.16-7.178-1.699-16.348 5.479-20.493l25.986-15c7.178-4.16 16.348-1.699 20.479 5.493 4.16 7.178 1.699 16.348-5.479 20.493l-25.986 15c-7.242 4.157-16.399 1.625-20.479-5.493z" fill="#fabe2c"/></g><g><path d="m61.146 338.5c-4.16-7.178-1.699-16.348 5.478-20.493l25.987-15c7.148-4.131 16.348-1.685 20.479 5.493 4.16 7.178 1.699 16.348-5.479 20.493l-25.987 15c-7.235 4.155-16.395 1.63-20.478-5.493z" fill="#ffe666"/></g><g><path d="m338.5 83.104c-7.178-4.146-9.639-13.315-5.479-20.493l15-25.972c4.102-7.192 13.301-9.58 20.479-5.493 7.178 4.146 9.639 13.315 5.479 20.493l-15 25.972c-4.084 7.146-13.26 9.638-20.479 5.493z" fill="#fabe2c"/></g><g><path d="m153.021 77.611-15-25.972c-4.16-7.178-1.699-16.348 5.479-20.493 7.148-4.131 16.348-1.714 20.479 5.493l15 25.972c4.16 7.178 1.699 16.348-5.479 20.493-7.209 4.139-16.391 1.661-20.479-5.493z" fill="#ffe666"/></g><g><path d="m430.374 343.993-25.986-15c-7.178-4.146-9.639-13.315-5.479-20.493 4.131-7.163 13.359-9.58 20.479-5.493l25.986 15c7.178 4.146 9.639 13.315 5.479 20.493-4.074 7.108-13.226 9.656-20.479 5.493z" fill="#fabe2c"/></g><g><path d="m92.611 148.993-25.987-15c-7.177-4.146-9.638-13.315-5.478-20.493 4.131-7.178 13.33-9.609 20.478-5.493l25.987 15c7.178 4.146 9.639 13.315 5.479 20.493-4.081 7.12-13.238 9.65-20.479 5.493z" fill="#ffe666"/></g><g><path d="m466 241h-30c-8.291 0-15-6.709-15-15s6.709-15 15-15h30c8.291 0 15 6.709 15 15s-6.709 15-15 15z" fill="#fabe2c"/></g><g><path d="m76 241h-30c-8.291 0-15-6.709-15-15s6.709-15 15-15h30c8.291 0 15 6.709 15 15s-6.709 15-15 15z" fill="#ffe666"/></g></g><g fill="#fabe2c"><path d="m271 46v-31c0-8.291-6.709-15-15-15v61c8.291 0 15-6.709 15-15z"/><path d="m363.7 307.3c-29.1 38.4-45.6 82.8-47.1 128.7h-60.6v-344.74c66.82.24 133.55 45.41 134.98 131.91.258 31.49-8.806 59.394-27.28 84.13z"/><path d="m296.605 215.395c-5.859-5.859-15.352-5.859-21.211 0l-19.394 19.394-19.395-19.395c-5.859-5.859-15.352-5.859-21.211 0s-5.859 15.352 0 21.211l25.606 25.606v53.789c0 8.291 6.709 15 15 15s15-6.709 15-15v-53.789l25.605-25.605c5.86-5.86 5.86-15.352 0-21.211z"/></g><path d="m271 316v-53.789l25.605-25.605c5.859-5.859 5.859-15.352 0-21.211s-15.352-5.859-21.211 0l-19.394 19.394v96.211c8.291 0 15-6.709 15-15z" fill="#ff9100"/></g></svg>