<svg width="17" height="21" viewBox="0 0 17 21" fill="none" xmlns="http://www.w3.org/2000/svg">
<path d="M5.54879 17.1227C5.54879 18.6499 6.71668 19.8178 8.24391 19.8178C9.77114 19.8178 10.939 18.6499 10.939 17.1227H5.54879Z" stroke="#6FE57B" stroke-width="2" stroke-miterlimit="10" stroke-linecap="round" stroke-linejoin="round"/>
<path d="M13.6342 13.5293V9.93578C13.6342 6.97114 11.2085 4.54553 8.24391 4.54553C5.27928 4.54553 2.85367 6.97114 2.85367 9.93578V13.5293C1.86546 13.5293 1.05692 14.3378 1.05692 15.326C1.05692 16.3142 1.86546 17.1228 2.85367 17.1228H13.6342C14.6224 17.1228 15.4309 16.3142 15.4309 15.326C15.4309 14.3378 14.6224 13.5293 13.6342 13.5293Z" fill="#F4EFFC" stroke="#6FE57B" stroke-width="2" stroke-miterlimit="10" stroke-linecap="round" stroke-linejoin="round"/>
<path d="M8.24391 1.85046V4.54559" stroke="#6FE57B" stroke-width="2" stroke-miterlimit="10" stroke-linecap="round" stroke-linejoin="round"/>
</svg>
