<svg id="Layer_1" height="512" viewBox="0 0 512 512" width="512" xmlns="http://www.w3.org/2000/svg" data-name="Layer 1"><path d="m240.458 160.53a6 6 0 0 1 -5.964-6.726c2.922-23.985-6.53-51.911-25.931-76.619-17.633-22.456-41.09-38.924-58.371-40.977a6 6 0 1 1 1.416-11.916c20.555 2.442 46.616 20.3 66.393 45.481 29.239 37.237 30.347 69.541 28.405 85.482a6 6 0 0 1 -5.948 5.275z" fill="#bf7a47"/><path d="m240.45 154.94c14.38-.09 34.39-4.51 47.87-2.35 116.99 18.78 150.89 87.7 150.89 172.24 0 97.1-65.84 175.84-198.35 176.17h-.83c-132.51-.33-198.35-79.07-198.35-176.17 0-84.54 33.9-153.46 150.89-172.24 13.49-2.16 33.5 2.27 47.88 2.35z" fill="#f29737"/><g opacity=".5"><path d="m323.7 469.13h-.83c-132.51-.33-198.35-79.07-198.35-176.17 0-57.077 15.461-107.029 61.5-139.243-111.702 20.277-144.34 88.175-144.34 171.113 0 97.1 65.84 175.84 198.35 176.17h.83c54.059-.135 97.018-13.323 128.941-35.481a292.6 292.6 0 0 1 -46.101 3.611z" fill="#efb637"/></g><g opacity=".5"><path d="m343.51 439.514-.734.388c-117.3 61.635-212.309 22.791-257.687-63.053-33.516-63.4-40.2-128.269 16.326-190-44.669 32.251-59.735 81.642-59.735 137.981 0 97.1 65.84 175.84 198.35 176.17h.83c118.441-.3 183.609-63.236 196.114-145.937-18.441 31.726-49.062 60.837-93.464 84.451z" fill="#ce7a2e"/></g><path d="m316.68 12.32c66.26-11.03 153.64 50.54 153.64 50.54s-127.54-36.83-242.61 29.35c0 0 13.77-67.37 88.97-79.89z" fill="#76b035"/><path d="m328.88 93.19c49.35 13.09 88.46 88.57 89.07 89.75-1.07-.99-76.43-70.42-178.27-56.88 0 0 32.76-47.85 89.2-32.87z" fill="#76b035"/><g fill="#4e6b28"><path d="m358.36 24.891c13.877-2.309 28.679-1.427 43.412 1.4-26.889-10.727-57.782-18.517-85.092-13.971-75.2 12.52-88.97 79.89-88.97 79.89a285.635 285.635 0 0 1 60.278-25.866c13.142-17.472 34.934-35.552 70.372-41.453z"/><path d="m358.383 108.573c.083.022.165.049.248.071-9.278-7.087-19.282-12.677-29.751-15.454-56.44-14.98-89.2 32.87-89.2 32.87a201.806 201.806 0 0 1 45.117-.889c14.914-12.238 40.077-25.492 73.586-16.598z"/><path d="m385.526 159.468c20.247 12.251 32.006 23.085 32.424 23.472-.13-.251-2.01-3.878-5.358-9.546a261.317 261.317 0 0 0 -27.066-13.926z"/></g><g opacity=".6"><path d="m84.339 392.322a6 6 0 0 1 -5.678-4.064c-1.925-5.643-3.592-11.457-4.953-17.281a202.512 202.512 0 0 1 -5.178-46.147c0-8.419.337-16.6 1-24.325a6 6 0 0 1 11.956 1.029c-.636 7.382-.958 15.22-.958 23.3a190.531 190.531 0 0 0 4.862 43.411c1.272 5.444 2.828 10.873 4.627 16.142a6 6 0 0 1 -5.68 7.939z" fill="#e9e9e9"/></g><g opacity=".6"><path d="m104.956 432.961a6 6 0 0 1 -4.91-2.543 161.638 161.638 0 0 1 -10.719-17.472 6 6 0 0 1 10.606-5.613 149.493 149.493 0 0 0 9.921 16.169 6 6 0 0 1 -4.9 9.459z" fill="#e9e9e9"/></g></svg>