<svg height="512" viewBox="0 0 58 60" width="512" xmlns="http://www.w3.org/2000/svg"><g id="Page-1" fill="none" fill-rule="evenodd"><g id="048---Water-Test" fill-rule="nonzero" transform="translate(-1)"><g id="Icons" transform="translate(1 1)"><path id="Shape" d="m54 34v17c0 3.8659932-3.1340068 7-7 7s-7-3.1340068-7-7v-8c1.9465026-2.5663443 3.0000783-5.698976 3-8.92v-.08z" fill="#02a9f4"/><path id="Shape" d="m51 34v17c.0012229 3.2889681-2.287431 6.1352213-5.5 6.84.4931668.1047782.995828.1583954 1.5.16 3.8659932 0 7-3.1340068 7-7v-17z" fill="#0377bc"/><path id="Shape" d="m54 9v25h-11c-.1291251-3.5757266-1.1611712-7.0606023-3-10.13v-14.87z" fill="#f5f5f5"/><path id="Rectangle-path" d="m51 9h3v25h-3z" fill="#cfd8dc"/><rect id="Rectangle-path" fill="#9e9e9e" height="9" rx="3" width="20" x="37"/><path id="Shape" d="m54 0h-3c1.6568542 0 3 1.34314575 3 3v3c0 1.65685425-1.3431458 3-3 3h3c1.6568542 0 3-1.34314575 3-3v-3c0-1.65685425-1.3431458-3-3-3z" fill="#707070"/><path id="Shape" d="m19 25c-.0022373 3.8121085-2.4059088 7.2092976-6 8.48-1.4579965.5179839-3.02399137.6556538-4.55.4-3.52092936-.5998172-6.35400135-3.2249213-7.22-6.69-1.73-7.32 5.88-14.2 8.14-16 .36152219-.2819639.8684778-.2819639 1.23 0 1.56 1.22 5.62 4.87 7.45 9.38.607552 1.3989781.930496 2.9049168.95 4.43z" fill="#3f51b5"/><path id="Shape" d="m43 34.13c.0000783 3.221024-1.0534974 6.3536557-3 8.92-3.3992851 4.4721013-9.0025387 6.6841148-14.54 5.74-5.8276911-.9620421-10.5357886-5.2777982-12-11-.3344698-1.3972755-.4691433-2.8349153-.4-4.27 3.5842908-1.2957754 5.9637606-4.7087522 5.94-8.52-.0171432-1.5136078-.333196-3.0089114-.93-4.4 2.5498616-3.4685986 5.5532864-6.5796488 8.93-9.25.6029451-.4687512 1.4470549-.4687512 2.05 0 4.3849668 3.4685466 8.0963988 7.71212 10.95 12.52 1.863268 3.1061606 2.8963581 6.6393289 3 10.26z" fill="#02a9f4"/><g fill="#f5f5f5"><path id="Shape" d="m9.12 30.93h-.12c-2.35267975-.3744997-4.25401854-2.1183778-4.83-4.43-.12702548-.5522847.21771527-1.1029745.77000001-1.23s1.10297449.2177153 1.22999999.77c.37951376 1.511083 1.62196425 2.6513065 3.16 2.9.55228473.0441828.9641827.5277153.9199999 1.08-.0441827.5522847-.52771517.9641827-1.0799999.92z"/><path id="Shape" d="m26.1 45.85h-.16c-4.6616907-.7563248-8.4315556-4.2041804-9.6-8.78-.1270255-.5384776.2065224-1.0779745.745-1.205s1.0779745.2065224 1.205.745c.9752696 3.8036663 4.1206449 6.6620261 8 7.27.5522847.0441828.9641828.5277153.92 1.08s-.5277153.9641828-1.08.92z"/><path id="Shape" d="m47 55c-1.0699851.0307097-2.1053413-.3808482-2.8622466-1.1377534-.7569052-.7569053-1.1684631-1.7922615-1.1377534-2.8622466 0-.5522847.4477153-1 1-1s1 .4477153 1 1c-.0357639.5406059.1634371 1.0703595.5465388 1.4534612s.9128553.5823027 1.4534612.5465388c.5522847 0 1 .4477153 1 1s-.4477153 1-1 1z"/></g></g><g id="Icons_copy" fill="#000"><path id="Shape" d="m56 52v-41.14c1.7614029-.4547821 2.9940928-2.04084302 3-3.86v-3c0-2.209139-1.790861-4-4-4h-14c-2.209139 0-4 1.790861-4 4v3c.0059072 1.81915698 1.2385971 3.4052179 3 3.86v10.58c-2.6489832-3.7005288-5.795239-7.0183985-9.35-9.86-.960711-.7615786-2.319289-.7615786-3.28 0-3.0091649 2.3866632-5.7307557 5.1149658-8.11 8.13-1.7941065-3.1683573-4.1688196-5.9705188-7-8.26-.7249755-.5691443-1.7450245-.5691443-2.47 0-1.79 1.37-10.47 8.7-8.51 16.97.95664635 3.8462302 4.0945728 6.7645018 8 7.44.56783501.0992506 1.1435888.1461143 1.72.14.6723676-.0059075 1.3424251-.0796138 2-.22.0457924 1.0853351.1964946 2.1636931.45 3.22 1.5642277 6.1298932 6.6075477 10.7532636 12.85 11.78.8928014.1443272 1.7956105.2178894 2.7.22 3.8237923.0101262 7.5257306-1.3444144 10.44-3.82.21-.17.39-.37.59-.56v5.38c0 4.418278 3.581722 8 8 8s8-3.581722 8-8zm-17-45v-3c0-1.1045695.8954305-2 2-2h14c1.1045695 0 2 .8954305 2 2v3c0 1.1045695-.8954305 2-2 2h-14c-1.1045695 0-2-.8954305-2-2zm3 4h12v3h-4c-.5522847 0-1 .4477153-1 1s.4477153 1 1 1h4v3h-4c-.5522847 0-1 .4477153-1 1s.4477153 1 1 1h4v3h-4c-.5522847 0-1 .4477153-1 1s.4477153 1 1 1h4v3h-4c-.5522847 0-1 .4477153-1 1s.4477153 1 1 1h4v3h-9c-.3042627-3.3048303-1.3282254-6.5030071-3-9.37zm-32.37 22.89c-3.11460518-.5163398-5.62738533-2.8288828-6.4-5.89-1.72-7.27 6.77-14.23 7.77-15 .82.65 8 6.5 8 13-.0002551 3.3770611-2.1210862 6.3902419-5.3 7.53-1.3035172.4662619-2.704878.5902151-4.07.36zm28.48 11.77c-3.1810817 2.6873191-7.3832033 3.8393368-11.49 3.15-5.4543382-.8961299-9.8616963-4.934573-11.23-10.29-.2579618-1.1048072-.3888108-2.2354772-.39-3.37 3.6533347-1.5715298 6.0149704-5.1730242 6-9.15-.0165889-1.4469208-.290876-2.8793093-.81-4.23 2.4271632-3.2206871 5.2530492-6.1204964 8.41-8.63.2425889-.183341.5774111-.183341.82 0 4.2457673 3.3739715 7.8556408 7.4782554 10.66 12.12 1.8042689 2.9848761 2.809863 6.3839218 2.92 9.87-.0023875 4.0582728-1.7909734 7.9097676-4.89 10.53zm3.89 6.34v-7.64c1.7848529-2.4392752 2.8266557-5.3424323 3-8.36h9v3h-4c-.5522847 0-1 .4477153-1 1s.4477153 1 1 1h4v3h-4c-.5522847 0-1 .4477153-1 1s.4477153 1 1 1h4v6c0 3.3137085-2.6862915 6-6 6s-6-2.6862915-6-6z"/></g></g></g></svg>