<svg height="512pt" viewBox="0 0 512 512" width="512pt" xmlns="http://www.w3.org/2000/svg" xmlns:xlink="http://www.w3.org/1999/xlink"><linearGradient id="a" gradientUnits="userSpaceOnUse" x1="175.4216219277" x2="336.5784420723" y1="256.4970987288" y2="95.3405452509"><stop offset="0" stop-color="#b3e152"/><stop offset="1" stop-color="#f6e46f"/></linearGradient><path d="m490.667969 256c0 129.601562-105.066407 234.667969-234.667969 234.667969s-234.667969-105.066407-234.667969-234.667969 105.066407-234.667969 234.667969-234.667969 234.667969 105.066407 234.667969 234.667969zm0 0" fill="#f5fbe9"/><path d="m320 469.332031c-129.601562 0-234.667969-105.0625-234.667969-234.664062 0-91.679688 52.578125-171.066407 129.222657-209.683594-109.835938 19.570313-193.222657 115.554687-193.222657 231.015625 0 129.601562 105.066407 234.667969 234.667969 234.667969 37.925781 0 73.742188-9.007813 105.445312-24.984375-13.453124 2.394531-27.304687 3.648437-41.445312 3.648437zm0 0" fill="#ecf7d4"/><path d="m256 512c-141.160156 0-256-114.839844-256-256s114.839844-256 256-256 256 114.839844 256 256-114.839844 256-256 256zm0-469.332031c-117.632812 0-213.332031 95.699219-213.332031 213.332031s95.699219 213.332031 213.332031 213.332031 213.332031-95.699219 213.332031-213.332031-95.699219-213.332031-213.332031-213.332031zm0 0" fill="#c6e87d"/><path d="m192 405.332031h-42.667969v-128c0-11.78125 9.554688-21.332031 21.335938-21.332031h64c11.78125 0 21.332031 9.550781 21.332031 21.332031v64c0 11.78125-9.550781 21.335938-21.332031 21.335938h-42.667969zm0-85.332031h21.332031v-21.332031h-21.332031zm0 0" fill="#b3e152"/><path d="m341.332031 256v64h-21.332031v-64h-42.667969v149.332031h42.667969v-42.664062h21.332031v42.664062h42.667969v-149.332031zm0 0" fill="#b3e152"/><path d="m256 85.332031c-65.550781 0-126.089844 38.277344-154.230469 97.511719l38.539063 18.304688c21.109375-44.433594 66.523437-73.148438 115.691406-73.148438s94.582031 28.714844 115.691406 73.152344l38.539063-18.308594c-28.140625-59.234375-88.679688-97.511719-154.230469-97.511719zm0 0" fill="url(#a)"/><path d="m152.925781 97.171875 35.503907-23.667969 85.332031 128.007813-35.5 23.667969zm0 0" fill="#a0d927"/></svg>