<svg height="512" viewBox="0 0 40 58" width="512" xmlns="http://www.w3.org/2000/svg"><g id="Page-1" fill="none" fill-rule="evenodd"><g id="008---PH-Level" fill-rule="nonzero"><path id="Shape" d="m11.55 9.45c2.3662113-3.22460089 4.9523682-6.28187939 7.74-9.15.1864103-.19183364.4425137-.30007247.71-.30007247s.5235897.10823883.71.30007247c3.55 3.57 19.29 20.8 19.29 37.7.0004239 5.4225418-2.2009903 10.6128411-6.0997976 14.3815625-3.8988074 3.7687214-9.1607958 5.7928039-14.5802024 5.6084375-11.37-.38-20.04-10.59-19.25-21.93.46-6.72 3.25-13.41 6.6-19.19z" fill="#2fa8cc"/><path id="Shape" d="m13.5 29h-5.5c-.55228475 0-1 .4477153-1 1v18c0 .5522847.44771525 1 1 1s1-.4477153 1-1v-8h4.5c3.0375661 0 5.5-2.4624339 5.5-5.5s-2.4624339-5.5-5.5-5.5zm0 9h-4.5v-7h4.5c1.9329966 0 3.5 1.5670034 3.5 3.5s-1.5670034 3.5-3.5 3.5z" fill="#fff"/><path id="Shape" d="m32 29c-.5522847 0-1 .4477153-1 1v8h-8v-8c0-.5522847-.4477153-1-1-1s-1 .4477153-1 1v18c0 .5522847.4477153 1 1 1s1-.4477153 1-1v-8h8v8c0 .5522847.4477153 1 1 1s1-.4477153 1-1v-18c0-.5522847-.4477153-1-1-1z" fill="#fff"/><path id="Shape" d="m16 13c-.0034285.2748245-.1569059.52576-.4.654h-.01c-.021.021-.052.021-.084.032s-.052.021-.083.032c-2.114.939-4.761 3.049-5.881 7.839-.05149037.251816-.26941826.4351463-.52633142.4427726-.25691317.0076264-.48533193-.1624543-.55166858-.4107726-.00718165-.016719-.01059573-.0348136-.01-.053-.34728243-1.5972493-.99181449-3.1149527-1.9-4.474-.98905388-1.4716038-2.37639878-2.6314241-4-3.344l-.157-.064c-.24468213-.1263103-.39839076-.3786391-.39839076-.654s.15370863-.5276897.39839076-.654c.052-.021.115-.042.177-.063 2.114-.939 4.761-3.05 5.881-7.84.05430291-.25711953.28120871-.44110875.544-.44110875s.48969709.18398922.544.44110875c.36364801 1.72638368 1.0836715 3.35784651 2.114 4.79.9882277 1.3722769 2.338501 2.4428013 3.9 3.092.2678703.1179367.4413848.382321.443.675z" fill="#f9eab0"/></g></g></svg>