<?xml version="1.0" encoding="iso-8859-1"?>
<!-- Generator: Adobe Illustrator 19.0.0, SVG Export Plug-In . SVG Version: 6.00 Build 0)  -->
<svg version="1.1" id="Capa_1" xmlns="http://www.w3.org/2000/svg" xmlns:xlink="http://www.w3.org/1999/xlink" x="0px" y="0px"
	 viewBox="0 0 446.432 446.432" style="enable-background:new 0 0 446.432 446.432;" xml:space="preserve">
<path style="fill:#763A02;" d="M55.371,39.782l-0.432-0.432c-8.675-8.678-8.675-22.746,0-31.424l0.576-0.576
	c8.678-8.675,22.746-8.675,31.424,0c5.187,5.186,12.599,7.479,19.808,6.128l28-5.256c58.464-10.962,118.456-10.962,176.92,0
	l28,5.256c7.209,1.351,14.621-0.942,19.808-6.128c8.678-8.675,22.746-8.675,31.424,0l0.576,0.576c8.675,8.678,8.675,22.746,0,31.424
	l-0.496,0.496c-4.909,4.91-7.241,11.832-6.304,18.712l4.8,35.368c11.737,86.074,11.737,173.342,0,259.416l-4.8,35.368
	c-0.937,6.88,1.395,13.802,6.304,18.712l0.496,0.496c8.675,8.678,8.675,22.746,0,31.424l-0.576,0.576
	c-8.678,8.675-22.746,8.675-31.424,0l-7.2-7.2c-5.607-5.608-13.778-7.803-21.44-5.76l-2.456,0.656
	c-69.229,18.466-141.713,21.199-212.136,8l-9.496-1.816c-7.209-1.351-14.621,0.942-19.808,6.128c-8.678,8.675-22.746,8.675-31.424,0
	l-0.576-0.576c-8.675-8.678-8.675-22.746,0-31.424l0.552-0.552c4.876-4.878,7.211-11.744,6.32-18.584l-5.6-43.08
	c-11.253-86.315-10.715-173.759,1.6-259.928l3.88-27.144C62.671,51.708,60.329,44.721,55.371,39.782L55.371,39.782z"/>
<path style="fill:#FADBB7;" d="M111.227,87.638h224v272h-224V87.638z"/>
<path style="fill:#33BC00;" d="M223.227,255.638c0-26.51-21.49-48-48-48h-16c0,26.51,21.49,48,48,48H223.227z"/>
<path style="fill:#79D60D;" d="M223.227,199.638c-22.091-22.091-22.092-57.908-0.001-79.999c0,0,0.001-0.001,0.001-0.001
	C245.318,141.729,245.318,177.545,223.227,199.638C223.227,199.637,223.227,199.637,223.227,199.638z"/>
<path style="fill:#008100;" d="M287.227,279.638h-16c-26.51,0-48,21.49-48,48h16C265.736,327.638,287.227,306.147,287.227,279.638z"
	/>
<path style="fill:#763A02;" d="M215.227,183.638h16v176h-16V183.638z"/>
<path style="fill:#33BC00;" d="M287.227,207.638h-16c-26.51,0-48,21.49-48,48h16C265.736,255.638,287.227,234.147,287.227,207.638z"
	/>
<path style="fill:#008100;" d="M223.227,327.638c0-26.51-21.49-48-48-48h-16c0,26.51,21.49,48,48,48H223.227z"/>
<g>
</g>
<g>
</g>
<g>
</g>
<g>
</g>
<g>
</g>
<g>
</g>
<g>
</g>
<g>
</g>
<g>
</g>
<g>
</g>
<g>
</g>
<g>
</g>
<g>
</g>
<g>
</g>
<g>
</g>
</svg>
