<svg width="23" height="22" viewBox="0 0 23 22" fill="none" xmlns="http://www.w3.org/2000/svg">
<path d="M18.8801 13.3358C18.4309 13.0662 18.2512 12.617 18.3411 12.1679C18.4309 11.8085 18.4309 11.3593 18.4309 11C18.4309 10.6406 18.4309 10.1914 18.3411 9.83209C18.2512 9.3829 18.5207 8.93371 18.8801 8.6642C19.4191 8.30485 19.5988 7.58615 19.3293 7.04713L18.7004 5.96908C18.3411 5.43005 17.6224 5.25038 17.0833 5.51989C16.6342 5.7894 16.185 5.69957 15.8256 5.43006C15.1968 4.89103 14.5679 4.53168 13.7594 4.26217C13.3102 4.0825 13.0407 3.63331 13.0407 3.18412C13.0407 2.55526 12.5016 2.01624 11.8728 2.01624H10.6151C9.98619 2.01624 9.44717 2.55526 9.44717 3.18412C9.44717 3.63331 9.17765 4.0825 8.72847 4.26217C8.00977 4.53168 7.29107 4.98087 6.66221 5.43006C6.30286 5.69957 5.76383 5.7894 5.31465 5.51989C4.77562 5.25038 4.05692 5.43005 3.78741 5.96908L3.15855 7.04713C2.7992 7.58615 3.06871 8.30485 3.60774 8.6642C4.05692 8.93371 4.2366 9.3829 4.14676 9.83209C4.14676 10.2813 4.05692 10.6406 4.05692 11C4.05692 11.3593 4.05692 11.8085 4.14676 12.1679C4.2366 12.617 3.96708 13.0662 3.60774 13.3358C2.97887 13.6951 2.7992 14.4138 3.15855 14.9528L3.78741 16.0309C4.14676 16.5699 4.86546 16.7496 5.40448 16.4801C5.85367 16.2105 6.30286 16.3004 6.75204 16.5699C7.38091 17.0191 8.00977 17.4683 8.72847 17.7378C9.17765 17.9175 9.44717 18.3666 9.44717 18.8158V18.9057C9.44717 19.5345 9.98619 20.0736 10.6151 20.0736H11.8728C12.5016 20.0736 13.0407 19.5345 13.0407 18.9057C13.0407 18.4565 13.3102 18.0073 13.7594 17.8276C14.4781 17.5581 15.1968 17.1988 15.7358 16.6597C16.0951 16.3902 16.6342 16.3004 16.9935 16.5699C17.5325 16.9292 18.2512 16.6597 18.6106 16.1207L19.2394 15.0427C19.6886 14.4138 19.509 13.6951 18.8801 13.3358ZM11.2439 14.5935C9.26749 14.5935 7.65042 12.9764 7.65042 11C7.65042 9.02355 9.26749 7.40648 11.2439 7.40648C13.2203 7.40648 14.8374 9.02355 14.8374 11C14.8374 12.9764 13.2203 14.5935 11.2439 14.5935Z" fill="#F4EFFC" stroke="#6FE57B" stroke-width="2" stroke-miterlimit="10" stroke-linecap="round" stroke-linejoin="round"/>
</svg>
