<svg id="Layer_1" height="512" viewBox="0 0 512 512" width="512" xmlns="http://www.w3.org/2000/svg" data-name="Layer 1"><path d="m441.29 250.11a155.662 155.662 0 0 1 -8.21 50.11c-16.39 48.21-75.09 141.37-106.13 173.87-23.78 24.91-52.52 40.58-83.48 10.16-32.7-32.12-79.49-88.05-113.23-144.2-56.62-94.21-24.99-162.22 16.52-190.17 12.26 5.27 30.26 11.2 47.27 10.04 25.69-1.75 36.39-32.51 36.39-32.51 1.35 41.27 37.73 68.14 37.73 68.14-.67-22.93 23.59-43.37 24.94-86.84.12-3.99 7.53 28.19 11.45 37.06 6.42 14.52 24.26 38.41 50.54 38.41 6.07 0 24.26-1.34 24.26-1.34s.58-14.69 0-19.55c-3.37-28.3-31.1-26.25-43.13-39.08-6.67-7.11-7.47-17.15-7.25-23.16h.01c10.93.77 29.46 9.9 29.46 9.9 54.42 29.02 82.86 84.18 82.86 139.16z" fill="#ca301e"/><g opacity=".5"><path d="m282.147 448.288c-32.7-32.12-79.49-88.05-113.23-144.2-14.2-23.632-22.85-45.615-27.184-65.732-10.374-34.081-5.417-64.529 6.765-87.746-.587-.244-1.175-.488-1.738-.73-41.51 27.95-73.14 95.96-16.52 190.17 33.74 56.15 80.53 112.08 113.23 144.2 30.96 30.42 59.7 14.75 83.48-10.16 4.029-4.218 8.524-9.461 13.332-15.493-17.851 9.763-37.5 9.966-58.135-10.309z" fill="#823b33"/></g><path d="m235.08 52.03c.81-11.15.01-22.5-4.64-31.08.91 1.02 59.31 66.21 59.28 66.21 0 0 34.36-76.75 97.03-76.16 0 0-31.67 24.94-64.49 63.95-.99 1.18 5.87-1.95 5.87-1.95l97.7-28.3c-28.3 42.46-96.36 51.21-96.36 51.21a37.8 37.8 0 0 0 -.51 5.14c-.22 6.01.58 16.05 7.25 23.16 12.03 12.83 39.76 10.78 43.13 39.08.58 4.86 0 19.55 0 19.55s-18.19 1.34-24.26 1.34c-26.28 0-44.12-23.89-50.54-38.41-3.92-8.87-11.33-41.05-11.45-37.06-1.35 43.47-25.61 63.91-24.94 86.84 0 0-36.38-26.87-37.73-68.14 0 0-10.7 30.76-36.39 32.51-17.01 1.16-35.01-4.77-47.27-10.04a139.017 139.017 0 0 1 -15.06-7.48s73.36-6.92 80.52-24.93c3.66-9.18-141.51 4.72-141.51 4.72 88.92-50.55 153.29-30.25 157.38-28.88a.221.221 0 0 0 .21.07s-.07-.02-.21-.07c-1.33-1.31 5.5-20.99 6.99-41.28z" fill="#76b035"/><g opacity=".8"><path d="m277.85 467.229a5.991 5.991 0 0 1 -1.76-8.3 5.991 5.991 0 0 1 8.3-1.76 5.992 5.992 0 0 1 1.76 8.3 5.989 5.989 0 0 1 -5.04 2.73 5.923 5.923 0 0 1 -3.26-.97zm21.79-33.54a6.011 6.011 0 0 1 -1.76-8.3 6 6 0 0 1 8.3-1.76 5.992 5.992 0 0 1 1.76 8.3 6 6 0 0 1 -5.03 2.73 6.039 6.039 0 0 1 -3.27-.97zm21.8-33.54a5.993 5.993 0 0 1 -1.76-8.3 5.992 5.992 0 0 1 8.3-1.76 5.992 5.992 0 0 1 1.76 8.3 6.015 6.015 0 0 1 -5.04 2.73 6.007 6.007 0 0 1 -3.26-.97zm21.79-33.54a6 6 0 0 1 -1.76-8.3 6 6 0 0 1 8.3-1.76 5.992 5.992 0 0 1 1.76 8.3 6.011 6.011 0 0 1 -5.03 2.73 6.039 6.039 0 0 1 -3.27-.97zm21.8-33.549a5.994 5.994 0 0 1 -1.77-8.29 6.018 6.018 0 0 1 8.31-1.77 6.014 6.014 0 0 1 1.76 8.3 6 6 0 0 1 -5.04 2.73 5.93 5.93 0 0 1 -3.26-.97zm21.79-33.54a5.993 5.993 0 0 1 -1.76-8.3 6 6 0 0 1 8.3-1.76 5.994 5.994 0 0 1 1.76 8.3 5.989 5.989 0 0 1 -5.04 2.73 5.93 5.93 0 0 1 -3.26-.97z" fill="#e9e9e9"/></g><g opacity=".8"><path d="m243.6 426.109a5.991 5.991 0 0 1 -1.76-8.3 5.993 5.993 0 0 1 8.3-1.76 5.992 5.992 0 0 1 1.76 8.3 5.985 5.985 0 0 1 -5.03 2.73 5.956 5.956 0 0 1 -3.27-.97zm21.8-33.54a6 6 0 0 1 -1.77-8.3 6 6 0 0 1 8.3-1.76 5.993 5.993 0 0 1 1.76 8.3 5.985 5.985 0 0 1 -5.03 2.73 5.982 5.982 0 0 1 -3.26-.97zm21.79-33.539a6 6 0 0 1 -1.76-8.3 5.993 5.993 0 0 1 8.3-1.759 5.983 5.983 0 0 1 1.76 8.29 6.011 6.011 0 0 1 -5.04 2.74 6.014 6.014 0 0 1 -3.26-.971zm21.79-33.54a6.015 6.015 0 0 1 -1.76-8.3 6.007 6.007 0 0 1 8.3-1.769 6.005 6.005 0 0 1 1.76 8.309 6.007 6.007 0 0 1 -5.03 2.731 6.047 6.047 0 0 1 -3.27-.971zm21.8-33.551a5.991 5.991 0 0 1 -1.76-8.3 6.01 6.01 0 0 1 8.3-1.76 6.014 6.014 0 0 1 1.76 8.3 6 6 0 0 1 -5.04 2.73 5.923 5.923 0 0 1 -3.26-.97z" fill="#e9e9e9"/></g><g opacity=".8"><path d="m173.12 347.29a6 6 0 0 1 -1.76-8.3 5.994 5.994 0 0 1 8.3-1.761 5.994 5.994 0 0 1 1.76 8.3 5.989 5.989 0 0 1 -5.04 2.73 5.93 5.93 0 0 1 -3.26-.969zm21.79-33.54a6.013 6.013 0 0 1 -1.76-8.3 6 6 0 0 1 8.3-1.761 6.005 6.005 0 0 1 1.77 8.3 6.014 6.014 0 0 1 -5.04 2.73 6.055 6.055 0 0 1 -3.27-.969zm21.8-33.54a6 6 0 0 1 -1.76-8.3 5.994 5.994 0 0 1 8.29-1.77 6.007 6.007 0 0 1 1.77 8.3 6.01 6.01 0 0 1 -5.04 2.741 6.022 6.022 0 0 1 -3.26-.971z" fill="#e9e9e9"/></g><g opacity=".8"><path d="m148.62 304.59a6 6 0 0 1 -1.76-8.3 5.993 5.993 0 0 1 8.3-1.76 5.993 5.993 0 0 1 1.76 8.3 5.989 5.989 0 0 1 -5.04 2.73 5.93 5.93 0 0 1 -3.26-.97zm21.8-33.54a6 6 0 0 1 -1.76-8.3 5.993 5.993 0 0 1 8.3-1.76 6 6 0 0 1 1.76 8.3 5.989 5.989 0 0 1 -5.04 2.73 5.93 5.93 0 0 1 -3.26-.97z" fill="#e9e9e9"/></g><g opacity=".8"><path d="m129.45 259.85a5.993 5.993 0 0 1 -1.76-8.3 5.993 5.993 0 0 1 8.3-1.76 5.993 5.993 0 0 1 1.76 8.3 5.99 5.99 0 0 1 -5.04 2.729 5.929 5.929 0 0 1 -3.26-.969zm21.79-33.54a6 6 0 0 1 -1.76-8.3 6 6 0 0 1 8.3-1.76 5.993 5.993 0 0 1 1.76 8.3 6.009 6.009 0 0 1 -5.03 2.73 6.047 6.047 0 0 1 -3.27-.97z" fill="#e9e9e9"/></g><g opacity=".8"><path d="m206.32 386.76a5.993 5.993 0 0 1 -1.76-8.3 5.993 5.993 0 0 1 8.3-1.76 5.993 5.993 0 0 1 1.76 8.3 5.988 5.988 0 0 1 -5.04 2.729 5.929 5.929 0 0 1 -3.26-.969zm21.79-33.54a6 6 0 0 1 -1.76-8.3 6 6 0 0 1 8.3-1.76 5.993 5.993 0 0 1 1.76 8.3 5.973 5.973 0 0 1 -5.03 2.729 5.962 5.962 0 0 1 -3.27-.969zm21.8-33.54a6.008 6.008 0 0 1 -1.77-8.3 6.019 6.019 0 0 1 8.31-1.771 6.026 6.026 0 0 1 1.76 8.311 6.025 6.025 0 0 1 -5.04 2.729 6.013 6.013 0 0 1 -3.26-.969zm21.79-33.54a6.007 6.007 0 0 1 -1.76-8.31 6.012 6.012 0 0 1 8.3-1.761 6 6 0 0 1 1.76 8.3 5.989 5.989 0 0 1 -5.04 2.73 6 6 0 0 1 -3.26-.959zm21.79-33.55a5.993 5.993 0 0 1 -1.76-8.3 6 6 0 0 1 8.3-1.76 6 6 0 0 1 1.76 8.3 5.989 5.989 0 0 1 -5.04 2.73 5.93 5.93 0 0 1 -3.26-.97z" fill="#e9e9e9"/></g><path d="m260.573 118.2q-.093 0-.186 0a6 6 0 0 1 -5.814-6.18c.523-17.125-8.46-38.081-24.029-56.059-17.794-20.533-40.785-33.173-61.5-33.811a6 6 0 0 1 .37-11.994c24.362.75 49.949 14.581 70.2 37.947 17.49 20.2 27.566 44.227 26.953 64.283a6 6 0 0 1 -5.994 5.814z" fill="#63591a"/></svg>