<svg id="Capa_1" enable-background="new 0 0 512 512" height="512" viewBox="0 0 512 512" width="512" xmlns="http://www.w3.org/2000/svg"><g><path d="m165.489 87.241h181.02v54.347h-181.02z" fill="#fece85"/><path d="m325.777 87.241h20.732v54.345h-20.732z" fill="#f9c280"/><path d="m346.52 136.151h-89.62-1.8-89.62l-40.112 59.205c-5.378 7.937-8.252 17.305-8.252 26.892v33.152l.697 3.293v168.249l-.697.388v51.333c0 18.412 14.926 33.337 33.337 33.337h211.096c18.412 0 33.337-14.926 33.337-33.337v-51.333l-1.127-2.823v-168.333l1.127-.772v-33.153c0-9.588-2.874-18.955-8.252-26.892z" fill="#fec165"/><path d="m394.886 222.248v33.153l-1.128.773v168.333l1.128 2.823v51.337c0 18.41-14.93 33.329-33.339 33.329h-20.737c18.41 0 33.339-14.93 33.339-33.339v-256.419c0-9.586-2.883-18.945-8.258-26.884l-40.114-59.204h20.747l40.104 59.204c5.385 7.938 8.258 17.308 8.258 26.894z" fill="#fdb441"/><path d="m363.154 95.274h-214.31c-4.813 0-8.715-3.902-8.715-8.715v-77.844c0-4.813 3.902-8.715 8.715-8.715h214.31c4.813 0 8.715 3.902 8.715 8.715v77.844c.001 4.813-3.901 8.715-8.715 8.715z" fill="#8d9ca8"/><path d="m371.874 8.713v77.85c0 4.808-3.902 8.711-8.721 8.711h-20.593c4.819 0 8.721-3.902 8.721-8.711v-77.85c0-4.808-3.902-8.711-8.721-8.711h20.593c4.818 0 8.721 3.903 8.721 8.711z" fill="#7a8c98"/><path d="m117.114 255.401h277.771v171.929h-277.771z" fill="#f9f3f1"/><path d="m374.149 255.401h20.735v171.929h-20.735z" fill="#efe2dd"/><g><g><path d="m182.944 69.57c-4.142 0-7.5-3.358-7.5-7.5v-28.866c0-4.142 3.358-7.5 7.5-7.5s7.5 3.358 7.5 7.5v28.866c0 4.142-3.358 7.5-7.5 7.5z" fill="#6e7f89"/></g><g><path d="m219.472 69.57c-4.142 0-7.5-3.358-7.5-7.5v-28.866c0-4.142 3.358-7.5 7.5-7.5s7.5 3.358 7.5 7.5v28.866c0 4.142-3.358 7.5-7.5 7.5z" fill="#6e7f89"/></g><g><path d="m255.999 69.57c-4.142 0-7.5-3.358-7.5-7.5v-28.866c0-4.142 3.358-7.5 7.5-7.5s7.5 3.358 7.5 7.5v28.866c0 4.142-3.358 7.5-7.5 7.5z" fill="#6e7f89"/></g><g><path d="m292.527 69.57c-4.142 0-7.5-3.358-7.5-7.5v-28.866c0-4.142 3.358-7.5 7.5-7.5s7.5 3.358 7.5 7.5v28.866c0 4.142-3.358 7.5-7.5 7.5z" fill="#6e7f89"/></g><g><path d="m329.055 69.57c-4.142 0-7.5-3.358-7.5-7.5v-28.866c0-4.142 3.358-7.5 7.5-7.5s7.5 3.358 7.5 7.5v28.866c0 4.142-3.358 7.5-7.5 7.5z" fill="#6e7f89"/></g></g></g></svg>