<svg id="Layer_1" enable-background="new 0 0 512 512" height="512" viewBox="0 0 512 512" width="512" xmlns="http://www.w3.org/2000/svg"><path d="m301.74 338.26v103.15h-285.74v-309.72c-.001-4.338 1.971-8.441 5.36-11.15l62.16-49.73c2.534-2.029 5.684-3.133 8.93-3.13h132.84c3.246-.002 6.395 1.102 8.93 3.13l62.16 49.73c3.389 2.709 5.361 6.812 5.36 11.15z" fill="#f8ec7d"/><path d="m158.87 203.74c12.997 12.99 18.304 31.803 14.01 49.67-8.859 6.994-14.022 17.663-14.01 28.95.012-11.287-5.151-21.956-14.01-28.95-4.271-17.866 1.033-36.669 14.01-49.67z" fill="#3bb54a"/><path d="m172.88 253.41c6.518-5.192 14.607-8.013 22.94-8h15.84v15.84c.002 20.405-16.537 36.948-36.942 36.95-.003 0-.005 0-.008 0h-15.84v-15.84c-.012-11.287 5.151-21.956 14.01-28.95z" fill="#87e680"/><path d="m144.86 253.41c8.859 6.994 14.022 17.663 14.01 28.95v15.84h-15.84c-20.405.002-36.948-16.537-36.95-36.942 0-.003 0-.005 0-.008v-15.84h15.84c8.333-.013 16.422 2.808 22.94 8z" fill="#87e680"/><path d="m492.65 450.37c6.823 11.656 2.905 26.636-8.751 33.459s-26.636 2.905-33.459-8.751c-4.467-7.631-4.467-17.078 0-24.708l21.1-36.03z" fill="#6fe3ff"/><path d="m420.05 300.02h15.79c30.167.006 54.62 24.463 54.62 54.63v40.66h-37.83v-29.74c-.007-15.084-12.236-27.309-27.32-27.31h-2.14c-1.079 17.563-16.192 30.925-33.754 29.846-16.057-.987-28.859-13.789-29.846-29.846h-57.83v-38.24z" fill="#e48e66"/><path d="m418.68 243.74v-9.11h27.32c5.026 0 9.1 4.074 9.1 9.1v.01c0 5.026-4.074 9.1-9.1 9.1h-27.32z" fill="#e48e66"/><path d="m420.05 280.57v19.45h-54.63v-19.45h20.03 14.57z" fill="#f8ec7d"/><g fill="#e48e66"><path d="m385.45 243.74h14.57v36.83h-14.57z"/><path d="m366.79 243.74v9.1h-27.32c-5.026 0-9.1-4.074-9.1-9.1v-.01c0-5.026 4.074-9.1 9.1-9.1h27.32z"/><path d="m301.74 451.73v18.25c-.002 7.891-6.399 14.288-14.29 14.29h-257.16c-7.891-.002-14.288-6.399-14.29-14.29v-28.57h285.74z"/><path d="m92.45 24.82h132.84v42.86h-132.84z"/></g><path d="m158.87 354.21c-3.314 0-6-2.686-6-6v-52.86c0-3.314 2.686-6 6-6s6 2.686 6 6v52.86c0 3.314-2.686 6-6 6z" fill="#e2d574"/><path d="m360.22 237.75h65.03v11.81h-65.03z" fill="#e48e66"/></svg>